<svg id="Calque_1" data-name="Calque 1" xmlns="http://www.w3.org/2000/svg" viewBox="0 0 532.27 305.68"><defs><style>.cls-1,.cls-2{fill:#fff;}.cls-12,.cls-2,.cls-6{font-size:18px;font-family:Rubik-Regular, Rubik;}.cls-11,.cls-12,.cls-3,.cls-5{fill:none;}.cls-11,.cls-12,.cls-3{stroke:#fff;}.cls-3{stroke-linecap:round;stroke-linejoin:round;stroke-width:0.9px;}.cls-4,.cls-7{fill:#ec9683;}.cls-4,.cls-5,.cls-7,.cls-8,.cls-9{stroke:#000;}.cls-10,.cls-4,.cls-5,.cls-7,.cls-8,.cls-9{stroke-miterlimit:10;}.cls-6{fill:#231f20;}.cls-10,.cls-7,.cls-8,.cls-9{stroke-width:0.5px;}.cls-8{fill:#1ca85a;}.cls-9{fill:#4bbd97;}.cls-10{fill:#49a0ae;stroke:#231f20;}.cls-11,.cls-12{stroke-miterlimit:1;stroke-width:2px;}</style></defs><title>data1bl</title><line class="cls-1" x1="31.77" y1="291.02" x2="531.27" y2="291.02"/><line class="cls-1" x1="31.77" y1="291.02" x2="31.77" y2="283.93"/><line class="cls-1" x1="531.27" y1="291.02" x2="531.27" y2="283.93"/><text class="cls-2" transform="translate(12.57 299.8)">0</text><text class="cls-2" transform="translate(4.92 264.36)">10</text><text class="cls-2" transform="translate(2.05 228.92)">20</text><text class="cls-2" transform="translate(1.8 193.49)">30</text><text class="cls-2" transform="translate(1.44 158.05)">40</text><text class="cls-2" transform="translate(1.91 122.61)">50</text><text class="cls-2" transform="translate(1.77 87.17)">60</text><text class="cls-2" transform="translate(3.39 51.74)">70</text><text class="cls-2" transform="translate(1.15 16.3)">80</text><line class="cls-1" x1="31.77" y1="291.02" x2="31.77" y2="7.52"/><line class="cls-1" x1="31.77" y1="291.02" x2="44.25" y2="291.02"/><line class="cls-1" x1="31.77" y1="255.58" x2="44.25" y2="255.58"/><line class="cls-1" x1="31.77" y1="220.14" x2="44.25" y2="220.14"/><line class="cls-1" x1="31.77" y1="184.71" x2="44.25" y2="184.71"/><line class="cls-1" x1="31.77" y1="149.27" x2="44.25" y2="149.27"/><line class="cls-1" x1="31.77" y1="113.83" x2="44.25" y2="113.83"/><line class="cls-1" x1="31.77" y1="78.39" x2="44.25" y2="78.39"/><line class="cls-1" x1="31.77" y1="42.96" x2="44.25" y2="42.96"/><line class="cls-1" x1="31.77" y1="7.52" x2="44.25" y2="7.52"/><polyline class="cls-1" points="405.39 291.02 405.39 290.31 477.32 290.31"/><rect class="cls-1" x="325.47" y="242.12" width="71.93" height="48.9"/><rect class="cls-1" x="245.55" y="188.96" width="71.93" height="102.06"/><rect class="cls-1" x="165.63" y="33.39" width="71.93" height="257.63"/><rect class="cls-1" x="85.71" y="27.72" width="71.93" height="263.3"/><path class="cls-3" d="M48.74,609.37s1.45-1.16,1.56-1l1,1.82c.1.16.9-.57.9-.57.1.16-.11,3.21-.11,3.21.11.19,1-.66,1-.65s-1.37,3.64-1.11,4.06c.12.19,1.16-.93,1.25-.78" transform="translate(-30.73 -320.98)"/><path class="cls-3" d="M45.81,609.35c0,.07,1.46-1.25,1.61-1,.26.42-2.6,3.58-2.57,3.64s1.48-1.13,1.57-1-1.79,3.94-1.7,4.07,1.05-.93,1.17-.74c0,0-.89,3.47-.85,3.53s1-.64,1-.64.48,2.74.62,2.95,1-.86,1.11-.7,2.79,1.15,2.79,1.15c.14.23,1.45-1.23,1.59-1" transform="translate(-30.73 -320.98)"/><path class="cls-3" d="M38.63,574.14c.06.09,1.81-1.51,2-1.23a12.42,12.42,0,0,1-.14,2.12s1.13-.88,1.2-.76-1.28,3.65-1.2,3.77,1.08-.95,1.2-.76c0,0-1.25,3.68-1.2,3.76s1.2-.76,1.2-.76-1.39,3.79-1.2,4.08c.07.12,1.1-.92,1.21-.75" transform="translate(-30.73 -320.98)"/><path class="cls-3" d="M48.74,573.94s1.45-1.16,1.56-1,1,1.81,1,1.81c.1.16.9-.57.9-.57.1.16-.11,3.22-.11,3.22.11.19,1-.67,1-.66s-1.37,3.65-1.11,4.06c.12.2,1.16-.93,1.25-.78" transform="translate(-30.73 -320.98)"/><path class="cls-3" d="M45.81,573.91c0,.07,1.46-1.24,1.61-1,.26.42-2.6,3.59-2.57,3.64s1.48-1.13,1.57-1-1.79,3.94-1.7,4.07,1.05-.92,1.17-.73c0,0-.89,3.46-.85,3.53s1-.64,1-.64.48,2.73.62,2.94,1-.86,1.11-.7,2.79,1.15,2.79,1.15c.14.23,1.45-1.22,1.59-1" transform="translate(-30.73 -320.98)"/><path class="cls-3" d="M37.87,538.51s1.48-1.18,1.6-1,.8,1.93.8,1.93c.1.17.93-.59.94-.59.14.23-1.84,4.3-1.84,4.3.22.36,2.4-1.54,2.42-1.52s-8.24,7-7.55,8.09c.16.26,1.74-1.36,1.86-1.16s2.4,1,2.5,1.18,1.79-1.37,1.9-1.19,1.24,1,1.36,1.19.28-.18.28-.18" transform="translate(-30.73 -320.98)"/><path class="cls-3" d="M35,538.45c0,.08,1.53-1.29,1.68-1.05.26.41-2.56,3.56-2.53,3.61s1.33-1,1.41-.88" transform="translate(-30.73 -320.98)"/><path class="cls-3" d="M48.74,538.5s1.45-1.16,1.56-1,1,1.81,1,1.81c.1.17.9-.57.9-.56s-.11,3.21-.11,3.21c.12.19,1-.67,1-.66S51.77,545,52,545.39c.12.19,1.16-.93,1.26-.79" transform="translate(-30.73 -320.98)"/><path class="cls-3" d="M45.81,538.47c0,.07,1.46-1.24,1.61-1,.26.42-2.6,3.59-2.57,3.64s1.48-1.13,1.57-1-1.79,3.94-1.7,4.08,1.06-.93,1.17-.74c0,0-.89,3.46-.85,3.53s1-.64,1-.64.48,2.73.62,2.94,1-.86,1.11-.69,2.79,1.14,2.79,1.14c.14.23,1.45-1.22,1.59-1" transform="translate(-30.73 -320.98)"/><path class="cls-3" d="M33.57,511.41s.19-.21.23-.15.71,2,.71,2c.11.17.94-.59.94-.59s2.18,1.79,2.18,1.79c.39.62,4.45-2.84,4.48-2.8" transform="translate(-30.73 -320.98)"/><path class="cls-3" d="M34.13,502.21s.23-.26.29-.18,1.39,1.13,1.4,1.15,1.74-1.32,1.85-1.15,1.24,2.13,1.29,2.2,2.43-2,2.66-1.66c0,0-4.65,5.72-4.57,5.85s1.53-.95,1.53-.95,2,1.82,2.09,2,.8-.69.89-.55-1,3-1,3c.15.24,1.48-1.25,1.63-1" transform="translate(-30.73 -320.98)"/><path class="cls-3" d="M48.74,503.06s1.45-1.16,1.56-1l1,1.81c.1.17.9-.57.9-.56.1.16-.11,3.21-.11,3.21.11.19,1-.67,1-.66S51.77,509.53,52,510c.12.19,1.16-.93,1.25-.79" transform="translate(-30.73 -320.98)"/><path class="cls-3" d="M45.81,503c0,.08,1.46-1.24,1.61-1,.26.42-2.6,3.58-2.57,3.63s1.48-1.13,1.57-1-1.79,3.95-1.7,4.08,1.05-.93,1.17-.74c0,0-.89,3.47-.85,3.53s1-.64,1-.64.48,2.73.62,2.94,1-.85,1.11-.69,2.79,1.15,2.79,1.15c.14.23,1.45-1.23,1.59-1" transform="translate(-30.73 -320.98)"/><path class="cls-3" d="M41.26,475.84s1.11-.84,1.18-.74" transform="translate(-30.73 -320.98)"/><path class="cls-3" d="M39.28,468.31s1-.83,1.11-.69a27.07,27.07,0,0,1-1.11,3.12c.12.19,1.12-.71,1.13-.7a31.16,31.16,0,0,1-1.12,3.84c.12.2,1.13-.73,1.14-.72" transform="translate(-30.73 -320.98)"/><path class="cls-3" d="M38.33,467s.58-.53.65-.41c.31.49-3.28,4-3.24,4.06s2.32-1.74,2.45-1.53-5.34,6-5.18,6.25c0,0,1.26-1.09,1.4-.88,0,0,2.72,1.22,2.76,1.28s3.27-2.05,3.27-2.05-1.37,3.77-1.18,4.07c.07.11,1-.87,1.12-.71" transform="translate(-30.73 -320.98)"/><path class="cls-3" d="M48.74,467.62s1.45-1.16,1.56-1l1,1.82c.1.16.9-.57.9-.57.1.16-.11,3.21-.11,3.21.11.19,1-.66,1-.65s-1.37,3.64-1.11,4.06c.12.19,1.16-.93,1.25-.78" transform="translate(-30.73 -320.98)"/><path class="cls-3" d="M45.81,467.6c0,.07,1.46-1.25,1.61-1,.26.42-2.6,3.58-2.57,3.64s1.48-1.13,1.57-1-1.79,3.94-1.7,4.07,1.05-.93,1.17-.74c0,0-.89,3.47-.85,3.53s1-.64,1-.64.48,2.74.62,2.95,1-.86,1.11-.7,2.79,1.15,2.79,1.15c.14.23,1.45-1.23,1.59-1" transform="translate(-30.73 -320.98)"/><path class="cls-3" d="M33.73,440.27s.19-.18.22-.13l.84,2.3c.07.11.93-.77,1-.63s2.18,1.48,2.38,1.79,3.59-2.56,3.73-2.33" transform="translate(-30.73 -320.98)"/><path class="cls-3" d="M36.71,432.33s1.75-1.38,1.89-1.18,2,1.16,2,1.16.81-.52.82-.51" transform="translate(-30.73 -320.98)"/><path class="cls-3" d="M34.84,431.35s.26-.28.31-.19a11.27,11.27,0,0,1-.51,2.34s1.13-.87,1.21-.75-1.58,3.82-1.5,3.95,1.09-.95,1.21-.76c0,0,3.33.83,3.37.89s1.15-.71,1.15-.71.68,2.61.81,2.82,1-.84,1.08-.68" transform="translate(-30.73 -320.98)"/><path class="cls-3" d="M48.74,432.19s1.45-1.16,1.56-1,1,1.81,1,1.81c.1.16.9-.57.9-.57.1.16-.11,3.22-.11,3.22.11.19,1-.67,1-.66s-1.37,3.65-1.11,4.06c.12.2,1.16-.93,1.25-.78" transform="translate(-30.73 -320.98)"/><path class="cls-3" d="M45.81,432.16c0,.07,1.46-1.24,1.61-1,.26.42-2.6,3.59-2.57,3.64s1.48-1.13,1.57-1-1.79,3.94-1.7,4.07,1.05-.92,1.17-.73c0,0-.89,3.46-.85,3.53s1-.64,1-.64.48,2.73.62,2.94,1-.86,1.11-.7,2.79,1.15,2.79,1.15c.14.23,1.45-1.22,1.59-1" transform="translate(-30.73 -320.98)"/><path class="cls-3" d="M37.59,401.14s1.55-1.23,1.67-1l1.11,1.74c.1.16.87-.56.88-.55s-.13,3.22-.13,3.22c.13.21,1.19-.76,1.2-.75" transform="translate(-30.73 -320.98)"/><path class="cls-3" d="M38.11,396.12s.52-.49.59-.37c.31.48-3.28,4-3.24,4.05s2.68-2,2.84-1.77-4.78,5.68-4.64,5.91c0,0,1.25-1.08,1.38-.86,0,0-.58,3.27-.54,3.33s.87-.54.87-.54,1.74,2,1.86,2.16c.25.41,4.68-3.72,5-3.14" transform="translate(-30.73 -320.98)"/><path class="cls-3" d="M48.74,396.75s1.45-1.16,1.56-1l1,1.81c.1.17.9-.57.9-.56.1.16-.11,3.21-.11,3.21.11.19,1-.67,1-.66s-1.37,3.65-1.11,4.07c.12.19,1.16-.93,1.25-.79" transform="translate(-30.73 -320.98)"/><path class="cls-3" d="M45.81,396.72c0,.07,1.46-1.24,1.61-1,.26.42-2.6,3.59-2.57,3.64s1.48-1.13,1.57-1-1.79,3.94-1.7,4.08,1.05-.93,1.17-.74c0,0-.89,3.46-.85,3.53s1-.64,1-.64.48,2.73.62,2.94,1-.86,1.11-.69S50.59,408,50.59,408c.14.23,1.45-1.22,1.59-1" transform="translate(-30.73 -320.98)"/><path class="cls-3" d="M34.88,360.46s.23-.26.28-.18,1.34,1.17,1.35,1.19,1.8-1.36,1.91-1.19,2.75,1.16,2.81,1.25,1.21-1,1.34-.84c0,0-3.16,4.83-3.09,4.93a11.09,11.09,0,0,0,1.91-1.19c.07.12-4.15,5.25-3.85,5.73.11.18,1.75-1.43,1.91-1.19a36.58,36.58,0,0,1-1.85,3.59c.06.09.37-.36.43-.27" transform="translate(-30.73 -320.98)"/><path class="cls-3" d="M48.74,361.31s1.45-1.16,1.56-1l1,1.81c.1.17.9-.57.9-.56.1.16-.11,3.21-.11,3.21.11.19,1-.67,1-.66s-1.37,3.65-1.11,4.07c.12.19,1.16-.93,1.25-.79" transform="translate(-30.73 -320.98)"/><path class="cls-3" d="M45.81,361.28c0,.08,1.46-1.24,1.61-1,.26.42-2.6,3.58-2.57,3.63s1.48-1.12,1.57-1-1.79,3.95-1.7,4.08,1.05-.93,1.17-.74c0,0-.89,3.47-.85,3.53s1-.64,1-.64.48,2.73.62,2.94,1-.85,1.11-.69,2.79,1.15,2.79,1.15c.14.23,1.45-1.23,1.59-1" transform="translate(-30.73 -320.98)"/><path class="cls-3" d="M37.19,325.79s1.42-1.05,1.5-.93l1.46,1.92c.06.1.75-.63.83-.52" transform="translate(-30.73 -320.98)"/><path class="cls-3" d="M37.05,331.22c0,.06,4.18-3.23,4.46-2.79A27.59,27.59,0,0,1,40,331.8c.1.16.87-.55.88-.54a32.4,32.4,0,0,1-.27,3.3c.15.24,1.39-.88,1.4-.87" transform="translate(-30.73 -320.98)"/><path class="cls-3" d="M34.32,325.87c0,.07,1.42-1.21,1.57-1,.24.38-2.24,3.36-2.21,3.41s1.07-.83,1.14-.71,0,2.89,0,3,1.05-.91,1.16-.72c0,0-2.78,4.6-2.72,4.7s1-.64,1-.64.72,2.59.85,2.79.89-.76,1-.61,3.34.95,3.34.95c.16.25,1.68-1.4,1.84-1.15" transform="translate(-30.73 -320.98)"/><path class="cls-3" d="M48.74,325.87s1.45-1.16,1.56-1l1,1.82c.1.16.9-.58.9-.57.1.16-.11,3.21-.11,3.21.11.19,1-.66,1-.65s-1.37,3.64-1.11,4.06c.12.19,1.16-.93,1.25-.78" transform="translate(-30.73 -320.98)"/><path class="cls-3" d="M45.81,325.85c0,.07,1.46-1.25,1.61-1,.26.42-2.6,3.58-2.57,3.64s1.48-1.13,1.57-1-1.79,3.94-1.7,4.07,1.05-.93,1.17-.74c0,0-.89,3.47-.85,3.53s1-.64,1-.64.48,2.74.62,2.95,1-.86,1.11-.7,2.79,1.15,2.79,1.15c.14.23,1.45-1.23,1.59-1" transform="translate(-30.73 -320.98)"/><path class="cls-3" d="M436.37,611.45h0a11.88,11.88,0,0,0,2.63.39s.57-.46.62-.39,4.2.21,4.28.34.47-.45.54-.34,4.29.21,4.34.29.45-.29.45-.29,4.74-.11,5,.23c0,.06.32-.31.37-.23a49.15,49.15,0,0,0,5.37.18c.05.07.23-.26.28-.18.33.53,5.65,0,5.73.11s.14-.16.17-.11c.24.39,5-.18,5.19.06,0,0,.07-.08.09-.06.19.3,3.42-.08,3.49,0s0,0,0,0" transform="translate(-30.73 -320.98)"/><path class="cls-3" d="M356.45,563.26h0a13.7,13.7,0,0,1,0,2s3.08-2.31,3.25-2-3.36,4.86-3.25,5c0,0,7.44-6.06,8.07-5,0,0-8.2,7.83-8.07,8,.45.73,12.87-8,12.87-8,.19.31-13.62,10.17-12.87,11.38.85,1.37,17-13.34,18.2-11.38.53.84-18.2,14.91-18.2,14.91,1.72,2.76,22.13-17.67,23.85-14.91s-24.25,18-23.85,18.6c.63,1,28.14-21.2,29.76-18.6s-30.84,20.16-29.76,21.89c2.32,3.71,34-23.51,35-21.9,2.29,3.67-35.82,22.85-35,24.1,1.41,2.26,38.11-24.82,38.56-24.1,2.48,4-41.31,22.18-38.56,26.57,0,0,41.42-28.32,42.51-26.57,0,0-45.61,24-42.51,29,3.7,5.92,43.88-32.86,46.33-29,0,0-49.25,26.67-46.33,31.34,2.36,3.78,50.16-31.34,50.16-31.34,1.78,2.84-52.16,31.7-50.16,34.91,1.81,2.89,51.64-41.68,55.87-34.91,1.35,2.16-58.84,34-55.87,38.73,2.3,3.68,62-38.74,62-38.74,1.07,1.71-65.63,36.14-62,42,4.42,7.09,67.15-42,67.15-42,3.1,4.95-69.6,40.56-67.15,44.48,1.7,2.73,66.95-51.26,71.19-44.48,1.52,2.44-75.34,40.31-71.19,46.95,0,0,68.46-49.42,71.44-44.65,5.5,8.79-70.89,45.18-70.17,46.34,3.21,5.13,69.81-44.44,70.17-43.85,2.16,3.45-65.3,41.76-64,43.84,3.73,6,60.84-45.06,64-40,3.34,5.35-57.93,40-57.93,40s53.64-43.06,57.93-36.2c2.93,4.69-57.06,31.28-54,36.2,0,0,50.8-38.84,54-33.73.9,1.44-49.27,32.37-48.42,33.73s44.72-36.19,48.42-30.26-44.69,30-44.54,30.26c3.18,5.07,43.11-30.14,44.54-27.84,3.37,5.39-40.54,27.83-40.54,27.83,3,4.75,37.72-29.86,40.55-25.33,1,1.67-36.36,22.77-34.76,25.33,0,0,32.65-25.1,34.76-21.72.22.35-30.35,21.72-30.35,21.72,2.06,3.31,29.9-19.69,30.35-19,0,0-27.12,16.94-25.85,19,.56.9,25-17.49,25.85-16.16,1.37,2.19-20.82,14.67-19.9,16.16,1.51,2.41,19.9-12.44,19.9-12.44,1.15,1.83-15.29,10.82-14.27,12.43.86,1.38,13.58-10,14.28-8.92s-11.1,8.17-10.63,8.92c.18.29,9.88-7.84,10.63-6.64.34.55-6.11,5.75-5.55,6.64s5.14-4.12,5.55-3.47c.12.19-1,3.17-.82,3.47,0,.08.82-.52.82-.52" transform="translate(-30.73 -320.98)"/><path class="cls-3" d="M276.53,510.1h0a13.7,13.7,0,0,1,0,2s3.08-2.3,3.25-2-3.36,4.86-3.25,5c0,0,7.44-6.05,8.07-5,0,0-8.2,7.83-8.07,8,.45.73,12.87-8,12.87-8,.19.3-13.62,10.17-12.87,11.37.85,1.37,17-13.34,18.2-11.38.53.84-18.2,14.91-18.2,14.91,1.72,2.76,22.13-17.66,23.85-14.91s-24.25,18-23.85,18.6c.63,1,28.14-21.2,29.76-18.6,1.72,2.75-30.84,20.16-29.76,21.9,2.32,3.7,34-23.51,35-21.9,2.29,3.66-35.82,22.85-35,24.09,1.41,2.27,38.11-24.82,38.56-24.09,2.48,4-41.31,22.17-38.56,26.56,0,0,41.42-28.32,42.51-26.57,0,0-45.61,24-42.51,28.95,3.7,5.92,43.88-32.86,46.33-28.95,0,0-49.25,26.67-46.33,31.35,2.36,3.77,50.16-31.35,50.16-31.35,1.78,2.84-52.16,31.71-50.16,34.91,1.81,2.89,51.64-41.68,55.87-34.91,1.35,2.16-58.84,34-55.87,38.74,2.3,3.67,62-38.74,62-38.74,1.07,1.7-65.63,36.13-62,42,4.42,7.08,67.15-42,67.15-42,3.1,4.95-69.6,40.56-67.15,44.49,1.7,2.72,67-51.27,71.19-44.49,1.52,2.44-75.34,40.32-71.19,46.95,0,0,68.46-49.42,71.44-44.64,5.59,8.94-72.18,46-71.44,47.13,3.27,5.23,71.07-45.25,71.44-44.65,2.4,3.85-72.9,46.17-71.44,48.5,4.16,6.65,67.91-50.3,71.44-44.65,4.1,6.56-71.44,48.45-71.44,48.45s66.17-53.1,71.45-44.65c3.85,6.17-75.5,40.63-71.45,47.11,0,0,67.23-51.39,71.45-44.65,1.31,2.11-72.69,46.14-71.45,48.12s66-53.37,71.45-44.64c5.8,9.29-71.7,46.67-71.45,47.07,5.07,8.11,69.15-48.33,71.45-44.65,5.85,9.37-71.45,47.14-71.45,47.14,5.2,8.33,66.48-52.59,71.45-44.64,2.09,3.35-74.66,43.12-71.45,48.26,0,0,67.13-51.56,71.45-44.65.5.8-71.45,47.4-71.45,47.4,4.82,7.73,70.4-46.33,71.45-44.65,0,0-74.85,42-71.45,47.46,1.53,2.46,69.17-48.29,71.45-44.65,4.59,7.35-74.57,43.38-71.45,48.37,5.34,8.55,71.45-44.65,71.45-44.65,5.2,8.32-76.05,40.8-71.45,48.16,4.2,6.73,68-50.12,71.45-44.65,4.33,6.92-74.35,42.29-71.45,46.93,1.15,1.85,66.58-52.44,71.45-44.65,3.45,5.51-77,38.94-71.45,47.83s66.58-52.45,71.46-44.66c2.84,4.55-76,40.35-71.46,47.61,2.94,4.71,71.46-44.65,71.46-44.65,4.3,6.88-77.39,38.8-71.46,48.29,1.38,2.22,67.07-51.68,71.46-44.65,3.93,6.3-77.36,38.88-71.46,48.32,5.37,8.6,67.66-50.73,71.46-44.65,4.68,7.5-74.72,37.55-69.21,46.38,0,0,64.33-51,69.21-43.25,3.72,6-64.49,43.24-64.49,43.24L348,571.57c1.83,2.93-61.81,36.72-59.58,40.29,3.08,4.92,58.73-38.58,59.58-37.22,3.7,5.92-59,30.09-54.52,37.22,4,6.45,50.7-40.19,54.52-34.07s-52.94,27.87-49.07,34.07c.9,1.44,48.88-31,49.07-30.66,0,0-44.51,29.43-43.75,30.66L348,584.52c.75,1.19-39.27,25.27-38,27.33,2.05,3.29,37.12-25.09,38-23.73.28.43-36.47,20.64-34.53,23.73,1.18,1.9,33.54-23.17,34.54-21.58.68,1.09-29.91,21.58-29.91,21.58,1.81,2.9,28.85-20.38,29.91-18.69,1.73,2.78-27.05,15.56-25.09,18.69,1.3,2.09,24.66-16.36,25.09-15.68s-21.22,14.41-20.43,15.68c.11.17,20.35-12.9,20.43-12.77,1.22,2-15.86,12.08-15.43,12.76.66,1.07,15.43-9.64,15.43-9.64.49.79-11.05,9-10.64,9.64.12.2,10.64-6.65,10.64-6.65s-4.82,6.2-4.54,6.65c0,.06,4.14-3.47,4.54-2.84a20.64,20.64,0,0,1,0,2.84h0" transform="translate(-30.73 -320.98)"/><path class="cls-3" d="M196.61,354.53h0a13.7,13.7,0,0,1,0,2s3.08-2.3,3.25-2-3.36,4.86-3.25,5c0,0,7.44-6.05,8.07-5,0,0-8.2,7.83-8.07,8,.45.73,12.87-8,12.87-8,.19.3-13.62,10.17-12.87,11.37.85,1.37,17-13.34,18.2-11.38.53.84-18.2,14.91-18.2,14.91,1.72,2.76,22.13-17.66,23.85-14.91s-24.25,18-23.85,18.6c.63,1,28.14-21.2,29.76-18.6,1.72,2.75-30.84,20.16-29.76,21.89,2.32,3.71,34-23.51,35-21.89,2.29,3.66-35.82,22.85-35,24.09,1.41,2.27,38.11-24.82,38.56-24.09,2.49,4-41.31,22.17-38.56,26.56,0,0,41.42-28.32,42.51-26.57,0,0-45.61,24-42.51,28.95,3.7,5.92,43.88-32.86,46.33-28.95,0,0-49.25,26.67-46.33,31.35,2.36,3.77,50.16-31.35,50.16-31.35,1.78,2.84-52.16,31.71-50.16,34.91,1.81,2.89,51.64-41.68,55.87-34.91,1.35,2.16-58.84,34-55.87,38.73,2.3,3.68,62-38.73,62-38.73,1.07,1.7-65.63,36.13-62,42,4.42,7.08,67.15-42,67.15-42,3.1,4.95-69.6,40.56-67.15,44.49,1.7,2.72,66.95-51.27,71.19-44.49,1.52,2.44-75.34,40.32-71.19,46.95,0,0,68.46-49.42,71.44-44.64,5.59,8.94-72.18,45.95-71.44,47.13,3.27,5.23,71.07-45.25,71.44-44.65,2.4,3.85-72.9,46.17-71.44,48.5,4.16,6.65,67.91-50.3,71.44-44.65,4.1,6.56-71.44,48.45-71.44,48.45s66.16-53.1,71.44-44.65c3.86,6.17-75.49,40.63-71.44,47.11,0,0,67.23-51.39,71.44-44.65,1.32,2.11-72.68,46.14-71.44,48.12s66-53.37,71.44-44.64c5.81,9.29-71.69,46.67-71.44,47.07,5.07,8.11,69.15-48.33,71.44-44.65,5.86,9.37-71.44,47.14-71.44,47.14,5.2,8.32,66.48-52.59,71.44-44.64,2.1,3.35-74.65,43.12-71.44,48.26,0,0,67.13-51.55,71.45-44.65.5.8-71.45,47.4-71.45,47.4,4.82,7.72,70.39-46.33,71.45-44.64,0,0-74.85,42-71.45,47.45,1.53,2.45,69.17-48.29,71.45-44.64,4.59,7.35-74.57,43.37-71.45,48.36,5.34,8.55,71.45-44.64,71.45-44.64,5.19,8.31-76.05,40.79-71.45,48.15,4.2,6.73,68-50.11,71.45-44.64,4.32,6.91-74.35,42.28-71.45,46.92,1.15,1.85,66.58-52.44,71.45-44.64,3.44,5.51-77,38.93-71.45,47.82s66.58-52.45,71.45-44.65c2.84,4.55-76,40.34-71.45,47.6,2.94,4.71,71.45-44.65,71.45-44.65,4.3,6.88-77.38,38.8-71.45,48.29,1.38,2.22,67.06-51.67,71.45-44.64,3.93,6.3-77.35,38.87-71.45,48.31,5.37,8.6,67.65-50.73,71.45-44.65,4.83,7.74-77.14,38.68-71.45,47.78,0,0,66.42-52.7,71.45-44.64,4.11,6.57-71.45,47.59-71.45,47.59L268.06,416c2.19,3.51-74.12,43.45-71.45,47.72,3.68,5.89,70.43-46.27,71.45-44.65,4.82,7.71-77.26,38.52-71.45,47.81,5.27,8.43,66.45-52.66,71.45-44.65,5.61,9-77,39.12-71.45,48,1.31,2.1,71.17-45.1,71.45-44.65,0,0-72.68,46-71.45,48L268.06,429c1.37,2.19-73.83,44.44-71.45,48.25,3.84,6.14,69.85-47.21,71.45-44.65.55.88-75.39,40.49-71.45,46.8,2.43,3.89,69.41-47.91,71.45-44.65,1.59,2.54-71.45,47.54-71.45,47.54,4.29,6.87,68.95-48.66,71.45-44.65,4.76,7.62-76.82,39.06-71.45,47.66,3.67,5.88,70.26-46.56,71.45-44.65,1.6,2.56-74.09,43.34-71.45,47.56.36.59,71.18-45.08,71.45-44.65,5.26,8.42-73.28,44.84-71.45,47.77,3,4.85,71.45-44.65,71.45-44.65,3,4.73-73.9,43.72-71.45,47.64.8,1.29,71.45-44.65,71.45-44.65s-74.46,43.65-71.45,48.46c.5.81,65.71-53.84,71.45-44.65,3.91,6.26-71.45,48.17-71.45,48.17,4,6.44,65.69-53.87,71.45-44.65,4.63,7.41-75.69,41.13-71.45,47.92,1.48,2.37,68.85-48.82,71.45-44.66.12.19-73.6,44.62-71.45,48,1.49,2.38,71.45-44.65,71.45-44.65,2.69,4.29-71.45,47.06-71.45,47.06,1,1.56,67.41-51.13,71.45-44.65,0,0-75.66,40.63-71.45,47.37,2.66,4.26,67.57-50.88,71.46-44.66,1.17,1.88-76.08,40.18-71.46,47.56,4,6.39,69.56-47.69,71.46-44.65,4,6.41-74.66,42.32-71.46,47.43,0,0,66.79-52.11,71.46-44.65,0,0-75,41.48-71.46,47.11,0,0,66-53.41,71.46-44.65,2.7,4.33-71.46,47.43-71.46,47.43,2.42,3.88,71.46-44.65,71.46-44.65,5.63,9-75.93,40.78-71.46,47.94,0,0,66.26-53,71.46-44.65,2.68,4.3-74.48,41.83-71.46,46.66,0,0,69.54-47.72,71.46-44.66,1,1.66-72.79,44.57-71.46,46.71,3,4.79,71.46-44.66,71.46-44.66s-76.9,38.65-71.46,47.35c.72,1.15,71.35-44.83,71.46-44.66,4.61,7.38-71.46,47.8-71.46,47.8,5.74,9.19,69.31-48.1,71.46-44.65.06.1-71.46,47.09-71.46,47.09,4.48,7.18,66-53.42,71.46-44.65,5.73,9.17-71.69,47.55-71.46,47.92,3.65,5.85,66.15-53.15,71.46-44.65,3.74,6-74.15,43.49-71.46,47.79,1.91,3.06,71.46-44.65,71.46-44.65,4.21,6.74-73.5,44.15-71.46,47.42l71.46-44.66c.27.44-71.46,47.25-71.46,47.25,5,8,71.46-44.66,71.46-44.66C271.77,513,195,552,196.61,554.6c.41.66,70.2-46.67,71.46-44.65,1.85,2.95-76.29,40.06-71.46,47.79,3,4.75,66.05-53.31,71.46-44.65,4.89,7.82-73.07,44.28-71.46,46.85,4,6.41,68.26-49.78,71.46-44.66,2.14,3.42-77.35,38-71.46,47.45,2.56,4.11,65.68-53.9,71.46-44.65,3.87,6.2-71.46,48-71.46,48,.79,1.27,68.64-49.16,71.46-44.65,3.72,5.95-71.46,47.6-71.46,47.6,2.47,3.95,69.78-47.34,71.46-44.66,0,0-73.5,43.72-71.46,47,2.91,4.66,66.67-52.32,71.46-44.65,5.15,8.24-71.75,46.36-71.46,46.82,2.87,4.59,71.46-44.66,71.46-44.66,4.55,7.28-75.68,41.29-71.46,48,3.44,5.52,66.72-52.24,71.46-44.65,1.25,2-73.91,43.6-71.46,47.52,3.45,5.51,65.75-53.8,71.46-44.66,5.1,8.16-74.24,43.35-71.46,47.8,1.91,3.06,69.25-48.2,71.46-44.66,4.14,6.62-71.46,47.88-71.46,47.88,2.77,4.44,70.72-45.84,71.46-44.65,4.88,7.8-71.46,47.34-71.46,47.34,1.22,1.95,70.78-45.76,71.46-44.66,1.36,2.17-71.46,48.09-71.46,48.09,5.83,9.32,67.28-51.36,71.46-44.66,2.88,4.6-71.46,46.7-71.46,46.7,3.39,5.42,66-53.45,71.46-44.66,3,4.77-71.46,47.47-71.46,47.47,3.85,6.17,70.66-45.94,71.47-44.66,1.16,1.86-73.73,43.28-71.47,46.89,2.79,4.46,71.44-44.69,71.47-44.66,1.69,2.72-71.73,48.13-71.47,48.54,2.18,3.48,67-51.76,71.47-44.66,2.6,4.17-74.06,44.15-71.47,48.3,3.93,6.29,70.84-45.66,71.47-44.66,3.32,5.32-74.42,43.45-71.47,48.17.84,1.35,71.47-44.66,71.47-44.66,3.48,5.57-72.75,38.79-68.16,46.13,2.94,4.7,65.65-46.61,68.16-42.6.26.42-64.33,42.22-64.1,42.59,1.11,1.77,62.49-42.62,64.1-40.05,0,0-64.27,33.56-60.21,40.05,4.83,7.74,59.67-38.48,60.21-37.62,4.1,6.56-55,37-54.63,37.62,2.49,4,51.09-39.79,54.63-34.14,3,4.76-52.57,29.78-49.85,34.14,1.09,1.74,46.52-36.48,49.85-31.15,1.93,3.09-44.76,29.75-43.89,31.15,0,0,40.79-32.4,43.89-27.43,1.1,1.77-40.62,26.4-40,27.42,1,1.6,38.34-27.62,40-25,2.74,4.38-38.16,21.11-35.74,25,.84,1.34,35.74-22.33,35.74-22.33,1.59,2.54-31,22.11-30.86,22.33,2.43,3.9,28.8-22.59,30.86-19.28,1.51,2.42-27.06,18.75-26.73,19.28,1.59,2.55,26.73-16.7,26.73-16.7.56.89-21.38,16.7-21.38,16.7l21.38-13.36S248.93,610.22,250,611.85c.45.72,18.07-11.43,18.13-11.33,1.14,1.82-13.6,10.56-13.12,11.32.59,1,12.68-8.91,13.12-8.2s-7.77,7.92-7.6,8.2c0,0,7.6-4.75,7.6-4.75s-1.77,4.27-1.47,4.75c.06.1,1.37-1.08,1.47-.92" transform="translate(-30.73 -320.98)"/><path class="cls-3" d="M116.69,348.86h0a13.7,13.7,0,0,1,0,2s3.08-2.3,3.25-2-3.36,4.86-3.25,5c0,0,7.44-6,8.07-5,0,0-8.2,7.83-8.07,8,.45.73,12.87-8,12.87-8,.19.3-13.62,10.17-12.87,11.37.85,1.37,17-13.34,18.2-11.38.53.84-18.2,14.91-18.2,14.91,1.72,2.76,22.13-17.66,23.85-14.91s-24.25,18-23.85,18.6c.63,1,28.14-21.2,29.76-18.6S115.61,369,116.69,370.74c2.32,3.71,34-23.51,35-21.89,2.29,3.66-35.82,22.85-35,24.09,1.41,2.27,38.11-24.82,38.56-24.09,2.49,4-41.31,22.17-38.56,26.56,0,0,41.42-28.32,42.51-26.57,0,0-45.61,24-42.51,29,3.7,5.92,43.88-32.86,46.33-29,0,0-49.25,26.67-46.33,31.35,2.36,3.77,50.16-31.35,50.16-31.35,1.78,2.84-52.16,31.71-50.16,34.91,1.81,2.89,51.64-41.68,55.87-34.91,1.35,2.16-58.84,34-55.87,38.73,2.3,3.68,62-38.73,62-38.73,1.07,1.7-65.63,36.13-62,42,4.42,7.08,67.15-42,67.15-42,3.1,4.95-69.6,40.56-67.15,44.49,1.7,2.72,66.95-51.27,71.19-44.49,1.52,2.44-75.34,40.32-71.19,46.95,0,0,68.46-49.42,71.44-44.64,5.59,8.94-72.18,45.95-71.44,47.13,3.27,5.23,71.07-45.25,71.44-44.65,2.4,3.85-72.9,46.17-71.44,48.5,4.16,6.65,67.91-50.3,71.44-44.65,4.1,6.56-71.44,48.45-71.44,48.45s66.16-53.1,71.44-44.65c3.86,6.17-75.49,40.63-71.44,47.11,0,0,67.23-51.39,71.44-44.65,1.32,2.11-72.68,46.14-71.44,48.12s66-53.37,71.44-44.64c5.81,9.29-71.69,46.67-71.44,47.07,5.07,8.11,69.15-48.33,71.44-44.65,5.86,9.37-71.44,47.14-71.44,47.14,5.2,8.32,66.48-52.59,71.44-44.64,2.1,3.35-74.65,43.12-71.44,48.26,0,0,67.13-51.55,71.45-44.65.5.8-71.45,47.4-71.45,47.4,4.82,7.72,70.39-46.33,71.45-44.64,0,0-74.85,42-71.45,47.45,1.53,2.45,69.17-48.29,71.45-44.64,4.59,7.35-74.57,43.37-71.45,48.36C122,438.22,188.14,385,188.14,385c5.19,8.31-76,40.79-71.45,48.15,4.2,6.73,68-50.11,71.45-44.64,4.32,6.91-74.35,42.28-71.45,46.92,1.15,1.85,66.58-52.44,71.45-44.64,3.44,5.51-77,38.93-71.45,47.82s66.58-52.45,71.45-44.65c2.84,4.55-76,40.34-71.45,47.6,2.94,4.71,71.45-44.65,71.45-44.65,4.3,6.88-77.38,38.8-71.45,48.29,1.38,2.22,67.06-51.67,71.45-44.64,3.93,6.3-77.35,38.87-71.45,48.31,5.37,8.6,67.65-50.73,71.45-44.65C193,412,111,442.93,116.69,452c0,0,66.42-52.7,71.45-44.64C192.25,414,116.69,455,116.69,455l71.45-44.65c2.19,3.51-74.12,43.45-71.45,47.72,3.68,5.89,70.43-46.27,71.45-44.65,4.82,7.71-77.26,38.52-71.45,47.81,5.27,8.43,66.45-52.66,71.45-44.65,5.61,9-77,39.12-71.45,48.05,1.31,2.1,71.17-45.1,71.45-44.65,0,0-72.68,46-71.45,48l71.45-44.64c1.37,2.19-73.83,44.44-71.45,48.25,3.84,6.14,69.85-47.21,71.45-44.65.55.88-75.39,40.49-71.45,46.8,2.43,3.89,69.41-47.91,71.45-44.65,1.59,2.54-71.45,47.54-71.45,47.54,4.29,6.87,68.95-48.66,71.45-44.65,4.76,7.62-76.82,39.06-71.45,47.66,3.67,5.88,70.26-46.56,71.45-44.65,1.6,2.56-74.09,43.34-71.45,47.56.36.59,71.18-45.08,71.45-44.65,5.26,8.42-73.28,44.84-71.45,47.77,3,4.85,71.45-44.65,71.45-44.65,3,4.73-73.9,43.72-71.45,47.64.8,1.29,71.45-44.65,71.45-44.65s-74.46,43.65-71.45,48.46c.5.81,65.71-53.84,71.45-44.65,3.91,6.26-71.45,48.17-71.45,48.17,4,6.44,65.69-53.87,71.45-44.65,4.63,7.41-75.69,41.13-71.45,47.92,1.48,2.37,68.85-48.82,71.45-44.65.12.18-73.6,44.61-71.45,48C118.18,505,188.14,458,188.14,458c2.69,4.29-71.45,47.06-71.45,47.06,1,1.56,67.41-51.13,71.45-44.65,0,0-75.66,40.63-71.45,47.37,2.66,4.26,67.57-50.88,71.45-44.66,1.18,1.88-76.07,40.18-71.45,47.56,4,6.39,69.56-47.69,71.46-44.65,4,6.41-74.66,42.32-71.46,47.43,0,0,66.79-52.11,71.46-44.65,0,0-75,41.48-71.46,47.11,0,0,66-53.41,71.46-44.65,2.7,4.33-71.46,47.43-71.46,47.43,2.42,3.88,71.46-44.65,71.46-44.65,5.63,9-75.93,40.78-71.46,47.94,0,0,66.26-53,71.46-44.65,2.68,4.3-74.48,41.83-71.46,46.66,0,0,69.54-47.72,71.46-44.66,1,1.66-72.79,44.57-71.46,46.71,3,4.79,71.46-44.66,71.46-44.66s-76.9,38.65-71.46,47.35c.72,1.15,71.35-44.83,71.46-44.66,4.61,7.38-71.46,47.8-71.46,47.8,5.74,9.19,69.3-48.1,71.46-44.65.06.1-71.46,47.09-71.46,47.09,4.48,7.18,66-53.42,71.46-44.65,5.73,9.17-71.69,47.55-71.46,47.92,3.65,5.85,66.14-53.15,71.46-44.65,3.74,6-74.15,43.49-71.46,47.79,1.91,3.06,71.46-44.65,71.46-44.65,4.21,6.74-73.5,44.15-71.46,47.42l71.46-44.66c.27.44-71.46,47.25-71.46,47.25,5,8.05,71.46-44.66,71.46-44.66,3.7,5.93-73.11,44.91-71.46,47.55.41.66,70.2-46.67,71.46-44.65,1.85,3-76.29,40.06-71.46,47.79,3,4.75,66.05-53.31,71.46-44.65,4.89,7.82-73.07,44.28-71.46,46.85,4,6.41,68.26-49.78,71.46-44.66,2.13,3.42-77.35,38-71.46,47.45,2.56,4.11,65.68-53.9,71.46-44.65,3.87,6.2-71.46,48.05-71.46,48.05.79,1.27,68.64-49.16,71.46-44.65,3.72,6-71.46,47.6-71.46,47.6,2.47,4,69.78-47.34,71.46-44.66,0,0-73.5,43.72-71.46,47,2.91,4.66,66.67-52.32,71.46-44.65,5.15,8.24-71.75,46.36-71.46,46.82,2.87,4.59,71.46-44.66,71.46-44.66,4.55,7.28-75.68,41.29-71.46,48,3.44,5.52,66.72-52.24,71.46-44.65,1.25,2-73.91,43.6-71.46,47.52,3.45,5.51,65.75-53.8,71.46-44.66,5.1,8.16-74.24,43.35-71.46,47.8,1.91,3.06,69.25-48.2,71.46-44.66,4.14,6.62-71.46,47.88-71.46,47.88,2.77,4.44,70.72-45.84,71.46-44.65,4.88,7.8-71.46,47.34-71.46,47.34,1.22,1.95,70.78-45.76,71.46-44.66,1.36,2.17-71.46,48.09-71.46,48.09,5.83,9.32,67.28-51.35,71.46-44.66,2.88,4.6-71.46,46.7-71.46,46.7,3.39,5.42,66-53.45,71.46-44.66,3,4.77-71.46,47.47-71.46,47.47,3.85,6.17,70.66-45.94,71.46-44.66,1.16,1.86-73.72,43.28-71.46,46.89,2.79,4.46,71.44-44.69,71.46-44.66,1.7,2.72-71.72,48.13-71.46,48.54,2.18,3.48,67-51.76,71.47-44.66,2.6,4.17-74.06,44.15-71.47,48.3,3.93,6.29,70.84-45.66,71.47-44.66,3.32,5.32-74.42,43.45-71.47,48.17.84,1.35,71.47-44.66,71.47-44.66,3.64,5.84-76.27,40.51-71.47,48.19,3.08,4.94,68.84-48.86,71.47-44.66.29.47-71.73,46.78-71.47,47.2,1.23,2,69.68-47.52,71.47-44.66,0,0-73.95,38.27-69.29,45.73,5.56,8.89,68.67-44.29,69.29-43.3,4.76,7.61-64.14,42.61-63.71,43.29,2.9,4.65,59.59-46.4,63.71-39.8,3.5,5.6-62.14,34.67-58.93,39.8,1.28,2.06,55-43.11,58.93-36.82,2.31,3.71-54,35.15-53,36.82,0,0,49.23-39.08,53-33.1,1.35,2.16-49.85,31.85-49.07,33.1,1.23,2,47-33.89,49.07-30.66,3.41,5.46-47.83,25.83-44.82,30.66,1,1.67,44.82-28,44.82-28,2,3.26-40.12,27.72-39.94,28,3.14,5,37.28-29.21,39.94-25,2,3.2-36.25,24.25-35.81,25,2.13,3.41,35.81-22.37,35.81-22.37.78,1.25-30.46,22.37-30.46,22.37l30.46-19s-28.71,16.63-27.21,19c.67,1.07,27.12-17.15,27.21-17,1.84,2.94-23,15.77-22.2,17,1,1.59,21.46-15.07,22.2-13.88s-17,13.32-16.68,13.87c0,0,16.68-10.42,16.68-10.42.19.3-11.44,9-10.55,10.42.38.61,10-7.52,10.55-6.59,0,0-7.7,5.73-7.16,6.59.18.28,6.69-5.23,7.16-4.47.06.09-1.29,4.24-1.15,4.47,0,0,1.06-.86,1.15-.72" transform="translate(-30.73 -320.98)"/><line class="cls-4" x1="31.77" y1="291.02" x2="531.27" y2="291.02"/><line class="cls-5" x1="31.77" y1="291.02" x2="31.77" y2="283.93"/><line class="cls-5" x1="531.27" y1="291.02" x2="531.27" y2="283.93"/><text class="cls-6" transform="translate(12.57 299.8)">0</text><text class="cls-6" transform="translate(4.92 264.36)">10</text><text class="cls-6" transform="translate(2.05 228.92)">20</text><text class="cls-6" transform="translate(1.8 193.49)">30</text><text class="cls-6" transform="translate(1.44 158.05)">40</text><text class="cls-6" transform="translate(1.91 122.61)">50</text><text class="cls-6" transform="translate(1.77 87.17)">60</text><text class="cls-6" transform="translate(3.39 51.74)">70</text><text class="cls-6" transform="translate(1.15 16.3)">80</text><line class="cls-5" x1="31.77" y1="291.02" x2="31.77" y2="7.52"/><line class="cls-5" x1="31.77" y1="291.02" x2="44.25" y2="291.02"/><line class="cls-5" x1="31.77" y1="255.58" x2="44.25" y2="255.58"/><line class="cls-5" x1="31.77" y1="220.14" x2="44.25" y2="220.14"/><line class="cls-5" x1="31.77" y1="184.71" x2="44.25" y2="184.71"/><line class="cls-5" x1="31.77" y1="149.27" x2="44.25" y2="149.27"/><line class="cls-5" x1="31.77" y1="113.83" x2="44.25" y2="113.83"/><line class="cls-5" x1="31.77" y1="78.39" x2="44.25" y2="78.39"/><line class="cls-5" x1="31.77" y1="42.96" x2="44.25" y2="42.96"/><line class="cls-5" x1="31.77" y1="7.52" x2="44.25" y2="7.52"/><polyline class="cls-7" points="405.39 291.02 405.39 290.31 477.32 290.31"/><rect class="cls-7" x="325.47" y="242.12" width="71.93" height="48.9"/><rect class="cls-8" x="245.55" y="188.96" width="71.93" height="102.06"/><rect class="cls-9" x="165.63" y="33.39" width="71.93" height="257.63"/><rect class="cls-10" x="85.71" y="27.72" width="71.93" height="263.3"/><line class="cls-11" x1="31.77" y1="291.02" x2="531.27" y2="291.02"/><line class="cls-11" x1="31.77" y1="291.02" x2="31.77" y2="283.93"/><line class="cls-11" x1="531.27" y1="291.02" x2="531.27" y2="283.93"/><text class="cls-12" transform="translate(12.57 299.8)">0</text><text class="cls-12" transform="translate(4.92 264.36)">10</text><text class="cls-12" transform="translate(2.05 228.92)">20</text><text class="cls-12" transform="translate(1.8 193.49)">30</text><text class="cls-12" transform="translate(1.44 158.05)">40</text><text class="cls-12" transform="translate(1.91 122.61)">50</text><text class="cls-12" transform="translate(1.77 87.17)">60</text><text class="cls-12" transform="translate(3.39 51.74)">70</text><text class="cls-12" transform="translate(1.15 16.3)">80</text><line class="cls-11" x1="31.77" y1="291.02" x2="31.77" y2="7.52"/><line class="cls-11" x1="31.77" y1="291.02" x2="44.25" y2="291.02"/><line class="cls-11" x1="31.77" y1="255.58" x2="44.25" y2="255.58"/><line class="cls-11" x1="31.77" y1="220.14" x2="44.25" y2="220.14"/><line class="cls-11" x1="31.77" y1="184.71" x2="44.25" y2="184.71"/><line class="cls-11" x1="31.77" y1="149.27" x2="44.25" y2="149.27"/><line class="cls-11" x1="31.77" y1="113.83" x2="44.25" y2="113.83"/><line class="cls-11" x1="31.77" y1="78.39" x2="44.25" y2="78.39"/><line class="cls-11" x1="31.77" y1="42.96" x2="44.25" y2="42.96"/><line class="cls-11" x1="31.77" y1="7.52" x2="44.25" y2="7.52"/><polyline class="cls-11" points="405.39 291.02 405.39 290.31 477.32 290.31"/><rect class="cls-11" x="325.47" y="242.12" width="71.93" height="48.9"/><rect class="cls-11" x="245.55" y="188.96" width="71.93" height="102.06"/><rect class="cls-11" x="165.63" y="33.39" width="71.93" height="257.63"/><rect class="cls-11" x="85.71" y="27.72" width="71.93" height="263.3"/></svg>